<svg xmlns="http://www.w3.org/2000/svg" xmlns:xlink="http://www.w3.org/1999/xlink" width="500" zoomAndPan="magnify" viewBox="0 0 375 112.499997" height="150" preserveAspectRatio="xMidYMid meet" version="1.0"><defs><g/></defs><path fill="#ffffff" d="M 50.820312 42.261719 C 35.136719 35.828125 25.105469 58.722656 40.109375 68.179688 C 30.496094 64.082031 27.554688 49.683594 37.148438 42.796875 C 24.796875 43.109375 20.855469 58.332031 24.679688 67.988281 C 14.492188 48.734375 34.476562 30.113281 55.050781 43.246094 C 51.144531 37.789062 44.753906 34.234375 37.53125 34.234375 C 28.542969 34.234375 20.839844 39.738281 17.613281 47.558594 C 17.707031 46.480469 17.863281 45.402344 18.085938 44.324219 C 18.34375 43.070312 18.695312 41.824219 19.136719 40.585938 C 24.273438 26.234375 40.070312 18.761719 54.421875 23.898438 C 68.773438 29.035156 76.246094 44.832031 71.109375 59.183594 C 70.414062 61.117188 69.53125 62.925781 68.480469 64.59375 C 52.175781 70.042969 42.324219 62.335938 42.324219 62.335938 C 48.863281 71.757812 63.570312 67.9375 66.765625 67.023438 C 58.113281 71.207031 43.320312 70.132812 39.386719 59.90625 C 36.050781 51.226562 41.859375 39.894531 50.820312 42.257812 Z M 72.75 59.773438 C 78.210938 44.511719 70.265625 27.71875 55.007812 22.257812 C 39.75 16.796875 22.953125 24.738281 17.492188 39.996094 C 12.03125 55.257812 19.976562 72.050781 35.234375 77.511719 C 50.492188 82.972656 67.289062 75.03125 72.75 59.773438 Z M 72.75 59.773438 " fill-opacity="1" fill-rule="evenodd"/><g fill="#ffffff" fill-opacity="1"><g transform="translate(81.905348, 75.021372)"><g><path d="M 22.15625 0 L 15.0625 0 L -1.1875 -30.3125 L 10.875 -30.3125 L 18.265625 -13.953125 L 25.53125 -30.3125 L 32.734375 -30.3125 L 40 -13.953125 L 47.390625 -30.3125 L 59.453125 -30.3125 L 43.203125 0 L 36.109375 0 L 29.140625 -15.65625 Z M 22.15625 0 "/></g></g></g><g fill="#ffffff" fill-opacity="1"><g transform="translate(137.971911, 75.021372)"><g><path d="M 5.609375 -3.75 C 2.773438 -6.84375 1.359375 -10.632812 1.359375 -15.125 C 1.359375 -19.613281 2.773438 -23.414062 5.609375 -26.53125 C 8.453125 -29.644531 12.054688 -31.203125 16.421875 -31.203125 C 20.441406 -31.203125 23.753906 -29.941406 26.359375 -27.421875 L 26.359375 -30.3125 L 36.8125 -30.3125 L 36.8125 0 L 26.46875 0 L 26.46875 -3.421875 L 26.359375 -3.421875 C 23.753906 -0.546875 20.441406 0.890625 16.421875 0.890625 C 12.054688 0.890625 8.453125 -0.65625 5.609375 -3.75 Z M 14.5 -20.265625 C 13.144531 -18.929688 12.46875 -17.21875 12.46875 -15.125 C 12.46875 -13.039062 13.117188 -11.335938 14.421875 -10.015625 C 15.722656 -8.691406 17.4375 -8.03125 19.5625 -8.03125 C 21.613281 -8.03125 23.296875 -8.703125 24.609375 -10.046875 C 25.929688 -11.390625 26.59375 -13.082031 26.59375 -15.125 C 26.59375 -17.21875 25.910156 -18.929688 24.546875 -20.265625 C 23.191406 -21.609375 21.53125 -22.28125 19.5625 -22.28125 C 17.550781 -22.28125 15.863281 -21.609375 14.5 -20.265625 Z M 14.5 -20.265625 "/></g></g></g><g fill="#ffffff" fill-opacity="1"><g transform="translate(176.550801, 75.021372)"><g><path d="M 14.65625 -48.75 L 14.65625 -9.75 L 31.4375 -9.75 L 31.4375 0 L 3.546875 0 L 3.546875 -48.75 Z M 14.65625 -48.75 "/></g></g></g><g fill="#ffffff" fill-opacity="1"><g transform="translate(208.15823, 75.021372)"><g><path d="M 3.546875 -48.75 L 18.671875 -48.75 C 23.242188 -48.75 26.890625 -47.773438 29.609375 -45.828125 C 32.328125 -43.878906 33.6875 -40.71875 33.6875 -36.34375 C 33.6875 -31.457031 31.65625 -27.972656 27.59375 -25.890625 C 34.53125 -24.660156 38 -20.5625 38 -13.59375 C 38 -9.5 36.578125 -6.207031 33.734375 -3.71875 C 30.898438 -1.238281 27.003906 0 22.046875 0 L 3.546875 0 Z M 14.65625 -29.671875 L 15.546875 -29.671875 C 18.023438 -29.671875 19.875 -30.101562 21.09375 -30.96875 C 22.3125 -31.832031 22.921875 -33.25 22.921875 -35.21875 C 22.921875 -38.53125 20.460938 -40.1875 15.546875 -40.1875 L 14.65625 -40.1875 Z M 14.65625 -8.5625 L 18.140625 -8.5625 C 23.578125 -8.5625 26.296875 -10.375 26.296875 -14 C 26.296875 -16.164062 25.613281 -17.722656 24.25 -18.671875 C 22.894531 -19.617188 20.859375 -20.09375 18.140625 -20.09375 L 14.65625 -20.09375 Z M 14.65625 -8.5625 "/></g></g></g><g fill="#ffffff" fill-opacity="1"><g transform="translate(245.732755, 75.021372)"><g><path d="M 34.21875 -13.703125 L 12.234375 -13.703125 C 12.234375 -11.578125 12.921875 -10.003906 14.296875 -8.984375 C 15.679688 -7.960938 17.179688 -7.453125 18.796875 -7.453125 C 20.484375 -7.453125 21.816406 -7.675781 22.796875 -8.125 C 23.785156 -8.582031 24.910156 -9.476562 26.171875 -10.8125 L 33.75 -7.03125 C 30.59375 -1.75 25.351562 0.890625 18.03125 0.890625 C 13.457031 0.890625 9.535156 -0.675781 6.265625 -3.8125 C 2.992188 -6.945312 1.359375 -10.71875 1.359375 -15.125 C 1.359375 -19.539062 2.992188 -23.320312 6.265625 -26.46875 C 9.535156 -29.625 13.457031 -31.203125 18.03125 -31.203125 C 22.832031 -31.203125 26.738281 -29.8125 29.75 -27.03125 C 32.769531 -24.257812 34.28125 -20.289062 34.28125 -15.125 C 34.28125 -14.414062 34.257812 -13.941406 34.21875 -13.703125 Z M 12.53125 -19.5 L 24.046875 -19.5 C 23.816406 -21.070312 23.195312 -22.28125 22.1875 -23.125 C 21.1875 -23.976562 19.894531 -24.40625 18.3125 -24.40625 C 16.582031 -24.40625 15.203125 -23.953125 14.171875 -23.046875 C 13.148438 -22.140625 12.601562 -20.957031 12.53125 -19.5 Z M 12.53125 -19.5 "/></g></g></g><g fill="#ffffff" fill-opacity="1"><g transform="translate(279.467039, 75.021372)"><g><path d="M 3.546875 0 L 3.546875 -30.3125 L 14 -30.3125 L 14 -25.9375 L 14.125 -25.9375 C 14.195312 -26.09375 14.320312 -26.289062 14.5 -26.53125 C 14.675781 -26.769531 15.0625 -27.179688 15.65625 -27.765625 C 16.25 -28.359375 16.878906 -28.890625 17.546875 -29.359375 C 18.222656 -29.835938 19.09375 -30.265625 20.15625 -30.640625 C 21.21875 -31.015625 22.300781 -31.203125 23.40625 -31.203125 C 24.539062 -31.203125 25.660156 -31.039062 26.765625 -30.71875 C 27.867188 -30.40625 28.675781 -30.09375 29.1875 -29.78125 L 30.015625 -29.3125 L 25.640625 -20.453125 C 24.347656 -21.546875 22.535156 -22.09375 20.203125 -22.09375 C 18.941406 -22.09375 17.859375 -21.816406 16.953125 -21.265625 C 16.046875 -20.722656 15.40625 -20.054688 15.03125 -19.265625 C 14.664062 -18.472656 14.398438 -17.800781 14.234375 -17.25 C 14.078125 -16.695312 14 -16.265625 14 -15.953125 L 14 0 Z M 3.546875 0 "/></g></g></g><g fill="#ffffff" fill-opacity="1"><g transform="translate(307.116101, 75.021372)"><g><path d="M 3.546875 0 L 3.546875 -50.828125 L 14 -50.828125 L 14 0 Z M 3.546875 0 "/></g></g></g><g fill="#ffffff" fill-opacity="1"><g transform="translate(322.890016, 75.021372)"><g><path d="M 5.609375 -3.75 C 2.773438 -6.84375 1.359375 -10.632812 1.359375 -15.125 C 1.359375 -19.613281 2.773438 -23.414062 5.609375 -26.53125 C 8.453125 -29.644531 12.054688 -31.203125 16.421875 -31.203125 C 20.441406 -31.203125 23.753906 -29.941406 26.359375 -27.421875 L 26.359375 -30.3125 L 36.8125 -30.3125 L 36.8125 0 L 26.46875 0 L 26.46875 -3.421875 L 26.359375 -3.421875 C 23.753906 -0.546875 20.441406 0.890625 16.421875 0.890625 C 12.054688 0.890625 8.453125 -0.65625 5.609375 -3.75 Z M 14.5 -20.265625 C 13.144531 -18.929688 12.46875 -17.21875 12.46875 -15.125 C 12.46875 -13.039062 13.117188 -11.335938 14.421875 -10.015625 C 15.722656 -8.691406 17.4375 -8.03125 19.5625 -8.03125 C 21.613281 -8.03125 23.296875 -8.703125 24.609375 -10.046875 C 25.929688 -11.390625 26.59375 -13.082031 26.59375 -15.125 C 26.59375 -17.21875 25.910156 -18.929688 24.546875 -20.265625 C 23.191406 -21.609375 21.53125 -22.28125 19.5625 -22.28125 C 17.550781 -22.28125 15.863281 -21.609375 14.5 -20.265625 Z M 14.5 -20.265625 "/></g></g></g></svg>