<?xml version="1.0" encoding="UTF-8" standalone="no"?>
<svg
   width="475.85294"
   zoomAndPan="magnify"
   viewBox="0 0 356.8897 68.053635"
   height="90.738182"
   preserveAspectRatio="xMidYMid"
   version="1.0"
   id="svg26"
   sodipodi:docname="walberla_logo.svg"
   xmlns:inkscape="http://www.inkscape.org/namespaces/inkscape"
   xmlns:sodipodi="http://sodipodi.sourceforge.net/DTD/sodipodi-0.dtd"
   xmlns="http://www.w3.org/2000/svg"
   xmlns:svg="http://www.w3.org/2000/svg">
  <sodipodi:namedview
     id="namedview26"
     pagecolor="#ffffff"
     bordercolor="#111111"
     borderopacity="1"
     inkscape:showpageshadow="0"
     inkscape:pageopacity="0"
     inkscape:pagecheckerboard="1"
     inkscape:deskcolor="#d1d1d1">
    <inkscape:page
       x="0"
       y="0"
       width="356.88971"
       height="68.053635"
       id="page2"
       margin="0"
       bleed="0" />
  </sodipodi:namedview>
  <defs
     id="defs1" />
  <path
     fill="#203b66"
     d="M 37.649524,28.331897 C 20.801867,21.425647 10.02843,46.019397 26.145617,56.175647 15.817492,51.773307 12.657336,36.304557 22.96593,28.906117 9.6963976,29.245967 5.4620236,45.593617 9.5713976,55.972527 c -10.945312,-20.6875 10.5234384,-40.6875 32.6250004,-26.58203 -4.195312,-5.85938 -11.0625,-9.67969 -18.820312,-9.67969 -9.65625,0 -17.9296884,5.91406 -21.3945314,14.31641 0.09766,-1.16016 0.265625,-2.31641 0.503906,-3.47657 0.277344,-1.34375 0.65625,-2.6875 1.132813,-4.01953 5.515624,-15.41406 22.4843744,-23.4414 37.9023434,-17.92187 15.417969,5.51562 23.441407,22.48828 17.925781,37.90234 -0.746093,2.07813 -1.695312,4.01953 -2.824218,5.8125 -17.515625,5.85547 -28.09375,-2.42578 -28.09375,-2.42578 7.019531,10.12109 22.820312,6.01953 26.25,5.03516 -9.292969,4.49609 -25.179688,3.34375 -29.40625,-7.64454 -3.585938,-9.32421 2.65625,-21.5 12.28125,-18.95703 z m 23.558593,18.8125 C 67.075305,30.753777 58.540148,12.710807 42.149524,6.843617 25.758898,0.980337 7.7159296,9.511587 1.8526476,25.902217 c -5.867187,16.39062 2.664063,34.43359 19.0546884,40.30078 16.390625,5.86328 34.433594,-2.66797 40.300781,-19.0586 z m 0,0"
     fill-opacity="1"
     fill-rule="evenodd"
     id="path2"
     inkscape:export-filename="wave.svg"
     inkscape:export-xdpi="96"
     inkscape:export-ydpi="96" />
  <g
     fill="#203b66"
     fill-opacity="1"
     id="g5"
     transform="translate(-10.061414,-150.9767)">
    <g
       transform="translate(77.14013,203.99232)"
       id="g4">
      <g
         id="g3">
        <path
           d="M 23.109375,0 H 15.71875 L -1.234375,-31.625 H 11.34375 L 19.046875,-14.546875 26.625,-31.625 h 7.53125 L 41.734375,-14.546875 49.4375,-31.625 H 62.015625 L 45.0625,0 h -7.40625 l -7.265625,-16.328125 z m 0,0"
           id="path3" />
      </g>
    </g>
  </g>
  <g
     fill="#203b66"
     fill-opacity="1"
     id="g8"
     transform="translate(-10.061414,-150.9767)">
    <g
       transform="translate(135.63099,203.99232)"
       id="g7">
      <g
         id="g6">
        <path
           d="m 5.859375,-3.90625 c -2.960937,-3.226562 -4.4375,-7.1875 -4.4375,-11.875 0,-4.6875 1.476563,-8.648438 4.4375,-11.890625 2.957031,-3.25 6.71875,-4.875 11.28125,-4.875 4.1875,0 7.632813,1.320313 10.34375,3.953125 V -31.625 H 38.40625 V 0 H 27.609375 v -3.578125 h -0.125 c -2.710937,3 -6.15625,4.5 -10.34375,4.5 -4.5625,0 -8.324219,-1.609375 -11.28125,-4.828125 z M 15.125,-21.140625 C 13.707031,-19.742188 13,-17.957031 13,-15.78125 c 0,2.179688 0.675781,3.953125 2.03125,5.328125 1.363281,1.375 3.15625,2.0625 5.375,2.0625 2.132812,0 3.890625,-0.695313 5.265625,-2.09375 1.375,-1.394531 2.0625,-3.160156 2.0625,-5.296875 0,-2.175781 -0.710937,-3.960938 -2.125,-5.359375 -1.417969,-1.394531 -3.152344,-2.09375 -5.203125,-2.09375 -2.09375,0 -3.855469,0.699219 -5.28125,2.09375 z m 0,0"
           id="path5" />
      </g>
    </g>
  </g>
  <g
     fill="#203b66"
     fill-opacity="1"
     id="g11"
     transform="translate(-10.061414,-150.9767)">
    <g
       transform="translate(175.87801,203.99232)"
       id="g10">
      <g
         id="g9">
        <path
           d="m 15.28125,-50.859375 v 40.6875 H 32.796875 V 0 H 3.703125 v -50.859375 z m 0,0"
           id="path8" />
      </g>
    </g>
  </g>
  <g
     fill="#203b66"
     fill-opacity="1"
     id="g14"
     transform="translate(-10.061414,-150.9767)">
    <g
       transform="translate(208.85213,203.99232)"
       id="g13">
      <g
         id="g12">
        <path
           d="m 3.703125,-50.859375 h 15.78125 c 4.757813,0 8.554687,1.023437 11.390625,3.0625 2.84375,2.03125 4.265625,5.328125 4.265625,9.890625 0,5.09375 -2.121094,8.730469 -6.359375,10.90625 7.238281,1.273438 10.859375,5.546875 10.859375,12.828125 0,4.273437 -1.480469,7.703125 -4.4375,10.296875 C 32.242188,-1.289062 28.171875,0 22.984375,0 H 3.703125 Z M 15.28125,-30.9375 h 0.9375 c 2.582031,0 4.507812,-0.453125 5.78125,-1.359375 1.28125,-0.90625 1.921875,-2.382813 1.921875,-4.4375 0,-3.457031 -2.570313,-5.1875 -7.703125,-5.1875 h -0.9375 z m 0,22 h 3.640625 c 5.675781,0 8.515625,-1.890625 8.515625,-5.671875 0,-2.257813 -0.714844,-3.878906 -2.140625,-4.859375 -1.417969,-0.988281 -3.542969,-1.484375 -6.375,-1.484375 H 15.28125 Z m 0,0"
           id="path11" />
      </g>
    </g>
  </g>
  <g
     fill="#203b66"
     fill-opacity="1"
     id="g17"
     transform="translate(-10.061414,-150.9767)">
    <g
       transform="translate(248.05136,203.99232)"
       id="g16">
      <g
         id="g15">
        <path
           d="M 35.6875,-14.296875 H 12.765625 c 0,2.21875 0.71875,3.867187 2.15625,4.9375 1.4375,1.0625 3,1.59375 4.6875,1.59375 1.757813,0 3.148437,-0.234375 4.171875,-0.703125 1.03125,-0.476562 2.207031,-1.414062 3.53125,-2.8125 l 7.890625,3.953125 c -3.292969,5.5 -8.761719,8.25 -16.40625,8.25 -4.761719,0 -8.851563,-1.628906 -12.265625,-4.890625 -3.40625,-3.269531 -5.109375,-7.207031 -5.109375,-11.8125 0,-4.601562 1.703125,-8.546875 5.109375,-11.828125 3.414062,-3.289063 7.503906,-4.9375 12.265625,-4.9375 5.019531,0 9.097656,1.449219 12.234375,4.34375 3.144531,2.898437 4.71875,7.039063 4.71875,12.421875 0,0.742188 -0.02344,1.234375 -0.0625,1.484375 z m -22.625,-6.046875 h 12.03125 c -0.25,-1.644531 -0.902344,-2.90625 -1.953125,-3.78125 -1.042969,-0.882812 -2.386719,-1.328125 -4.03125,-1.328125 -1.8125,0 -3.257813,0.476563 -4.328125,1.421875 -1.0625,0.9375 -1.636719,2.167969 -1.71875,3.6875 z m 0,0"
           id="path14" />
      </g>
    </g>
  </g>
  <g
     fill="#203b66"
     fill-opacity="1"
     id="g20"
     transform="translate(-10.061414,-150.9767)">
    <g
       transform="translate(283.2443,203.99232)"
       id="g19">
      <g
         id="g18">
        <path
           d="m 3.703125,0 v -31.625 h 10.90625 v 4.5625 h 0.125 c 0.08203,-0.164062 0.210937,-0.367188 0.390625,-0.609375 0.1875,-0.25 0.585938,-0.679687 1.203125,-1.296875 0.625,-0.613281 1.285156,-1.164062 1.984375,-1.65625 0.695312,-0.5 1.597656,-0.941406 2.703125,-1.328125 1.113281,-0.394531 2.242187,-0.59375 3.390625,-0.59375 1.195312,0 2.367188,0.167969 3.515625,0.5 1.15625,0.324219 2,0.652344 2.53125,0.984375 l 0.859375,0.484375 -4.5625,9.25 c -1.355469,-1.144531 -3.246094,-1.71875 -5.671875,-1.71875 -1.3125,0 -2.445313,0.289063 -3.390625,0.859375 -0.949219,0.574219 -1.617188,1.273438 -2,2.09375 -0.386719,0.824219 -0.664062,1.523438 -0.828125,2.09375 -0.167969,0.574219 -0.25,1.027344 -0.25,1.359375 V 0 Z m 0,0"
           id="path17" />
      </g>
    </g>
  </g>
  <g
     fill="#203b66"
     fill-opacity="1"
     id="g23"
     transform="translate(-10.061414,-150.9767)">
    <g
       transform="translate(312.0889,203.99232)"
       id="g22">
      <g
         id="g21">
        <path
           d="m 3.703125,0 v -53.015625 h 10.90625 V 0 Z m 0,0"
           id="path20" />
      </g>
    </g>
  </g>
  <g
     fill="#203b66"
     fill-opacity="1"
     id="g26"
     transform="translate(-10.061414,-150.9767)">
    <g
       transform="translate(328.54487,203.99232)"
       id="g25">
      <g
         id="g24">
        <path
           d="m 5.859375,-3.90625 c -2.960937,-3.226562 -4.4375,-7.1875 -4.4375,-11.875 0,-4.6875 1.476563,-8.648438 4.4375,-11.890625 2.957031,-3.25 6.71875,-4.875 11.28125,-4.875 4.1875,0 7.632813,1.320313 10.34375,3.953125 V -31.625 H 38.40625 V 0 H 27.609375 v -3.578125 h -0.125 c -2.710937,3 -6.15625,4.5 -10.34375,4.5 -4.5625,0 -8.324219,-1.609375 -11.28125,-4.828125 z M 15.125,-21.140625 C 13.707031,-19.742188 13,-17.957031 13,-15.78125 c 0,2.179688 0.675781,3.953125 2.03125,5.328125 1.363281,1.375 3.15625,2.0625 5.375,2.0625 2.132812,0 3.890625,-0.695313 5.265625,-2.09375 1.375,-1.394531 2.0625,-3.160156 2.0625,-5.296875 0,-2.175781 -0.710937,-3.960938 -2.125,-5.359375 -1.417969,-1.394531 -3.152344,-2.09375 -5.203125,-2.09375 -2.09375,0 -3.855469,0.699219 -5.28125,2.09375 z m 0,0"
           id="path23" />
      </g>
    </g>
  </g>
</svg>
