<?xml version="1.0" encoding="UTF-8" standalone="no"?>
<svg
   width="84.080406"
   zoomAndPan="magnify"
   viewBox="0 0 63.060305 63.060652"
   height="84.080872"
   preserveAspectRatio="xMidYMid"
   version="1.0"
   id="svg26"
   sodipodi:docname="walberla_logo.svg"
   xmlns:inkscape="http://www.inkscape.org/namespaces/inkscape"
   xmlns:sodipodi="http://sodipodi.sourceforge.net/DTD/sodipodi-0.dtd"
   xmlns="http://www.w3.org/2000/svg"
   xmlns:svg="http://www.w3.org/2000/svg">
  <sodipodi:namedview
     id="namedview26"
     pagecolor="#ffffff"
     bordercolor="#111111"
     borderopacity="1"
     inkscape:showpageshadow="0"
     inkscape:pageopacity="0"
     inkscape:pagecheckerboard="1"
     inkscape:deskcolor="#d1d1d1">
    <inkscape:page
       x="0"
       y="0"
       width="63.060307"
       height="63.060654"
       id="page2"
       margin="0"
       bleed="0" />
  </sodipodi:namedview>
  <defs
     id="defs1" />
  <path
     fill="#203b66"
     d="M 37.649524,23.338923 C 20.801867,16.432673 10.02843,41.026423 26.145617,51.182673 15.817492,46.780333 12.657336,31.311583 22.96593,23.913143 9.6963985,24.252993 5.4620245,40.600643 9.5713985,50.979553 c -10.945312,-20.6875 10.5234375,-40.6875 32.6249995,-26.58203 -4.195312,-5.85938 -11.0625,-9.67969 -18.820312,-9.67969 -9.65625,0 -17.9296875,5.91406 -21.3945305,14.31641 0.09766,-1.16016 0.265625,-2.31641 0.503906,-3.47657 0.277344,-1.34375 0.65625,-2.6875 1.132813,-4.01953 C 9.1338985,6.1240822 26.102648,-1.9032578 41.520617,3.6162722 c 15.417969,5.51562 23.441407,22.4882808 17.925781,37.9023408 -0.746093,2.07813 -1.695312,4.01953 -2.824218,5.8125 -17.515625,5.85547 -28.09375,-2.42578 -28.09375,-2.42578 7.019531,10.12109 22.820312,6.01953 26.25,5.03516 -9.292969,4.49609 -25.179688,3.34375 -29.40625,-7.64454 -3.585938,-9.32421 2.65625,-21.5 12.28125,-18.95703 z m 23.558593,18.8125 C 67.075305,25.760803 58.540148,7.7178322 42.149524,1.8506422 25.758898,-4.0126378 7.7159305,4.5186122 1.8526485,20.909243 c -5.867187,16.39062 2.664063,34.43359 19.0546875,40.30078 16.390625,5.86328 34.433594,-2.66797 40.300781,-19.0586 z m 0,0"
     fill-opacity="1"
     fill-rule="evenodd"
     id="path2" />
</svg>
