<?xml version="1.0" encoding="UTF-8" standalone="no"?>
<svg
   width="311.07056"
   zoomAndPan="magnify"
   viewBox="0 0 233.30291 63.060652"
   height="84.080872"
   preserveAspectRatio="xMidYMid"
   version="1.0"
   id="svg26"
   sodipodi:docname="sweepgen_light.svg"
   inkscape:version="1.4.2 (ebf0e940d0, 2025-05-08)"
   xmlns:inkscape="http://www.inkscape.org/namespaces/inkscape"
   xmlns:sodipodi="http://sodipodi.sourceforge.net/DTD/sodipodi-0.dtd"
   xmlns="http://www.w3.org/2000/svg"
   xmlns:svg="http://www.w3.org/2000/svg">
  <sodipodi:namedview
     id="namedview26"
     pagecolor="#ffffff"
     bordercolor="#111111"
     borderopacity="1"
     inkscape:showpageshadow="0"
     inkscape:pageopacity="0"
     inkscape:pagecheckerboard="1"
     inkscape:deskcolor="#d1d1d1"
     inkscape:zoom="2.7626654"
     inkscape:cx="112.21048"
     inkscape:cy="80.35718"
     inkscape:window-width="1920"
     inkscape:window-height="1159"
     inkscape:window-x="0"
     inkscape:window-y="0"
     inkscape:window-maximized="1"
     inkscape:current-layer="svg26">
    <inkscape:page
       x="0"
       y="0"
       width="233.30292"
       height="63.060654"
       id="page2"
       margin="0"
       bleed="0" />
  </sodipodi:namedview>
  <defs
     id="defs1" />
  <path
     fill="#203b66"
     d="m 37.649523,23.338917 c -16.847657,-6.90625 -27.621094,17.6875 -11.503907,27.84375 -10.328125,-4.40234 -13.488281,-19.87109 -3.179687,-27.26953 -13.2695314,0.33985 -17.5039054,16.6875 -13.3945314,27.06641 -10.945312,-20.6875 10.5234374,-40.6875 32.6249994,-26.58203 -4.195312,-5.85938 -11.0625,-9.67969 -18.820312,-9.67969 -9.65625,0 -17.9296874,5.91406 -21.3945304,14.31641 0.09766,-1.16016 0.265625,-2.31641 0.503906,-3.47657 0.277344,-1.34375 0.65625,-2.6875 1.132813,-4.01953 5.515624,-15.41406 22.4843734,-23.4414 37.9023424,-17.92187 15.41797,5.51562 23.44141,22.48828 17.92578,37.90234 -0.74609,2.07813 -1.69531,4.01953 -2.82422,5.8125 -17.515622,5.85547 -28.093747,-2.42578 -28.093747,-2.42578 7.019531,10.12109 22.820312,6.01953 26.249997,5.03516 -9.292966,4.49609 -25.179685,3.34375 -29.406247,-7.64454 -3.585938,-9.32421 2.65625,-21.5 12.28125,-18.95703 z m 23.558593,18.8125 c 5.86719,-16.39062 -2.66797,-34.43359 -19.058593,-40.30078 -16.390626,-5.86328 -34.4335934,2.66797 -40.2968754,19.0586 -5.867187,16.39062 2.664063,34.43359 19.0546874,40.30078 16.390625,5.86328 34.433591,-2.66797 40.300781,-19.0586 z m 0,0"
     fill-opacity="1"
     fill-rule="evenodd"
     id="path2" />
  <path
     style="font-size:35px;font-family:'Courier Prime';-inkscape-font-specification:'Courier Prime, Normal';text-align:center;letter-spacing:3.75px;text-anchor:middle;fill:#203b66;stroke-width:1.904;stroke-linejoin:round;stroke-dasharray:5.712, 5.712"
     d="m 56.047043,27.066448 q 0.700683,0 0.991211,0.256348 0.290527,0.256348 0.290527,0.854492 v 3.24707 q 0,0.598145 -0.290527,0.854493 -0.290528,0.256347 -0.991211,0.256347 -0.581055,0 -0.820313,-0.444336 -0.734863,-1.401367 -2.13623,-1.965332 -1.401367,-0.581054 -3.554688,-0.581054 -1.657714,0 -2.597656,0.598144 -0.922851,0.581055 -0.922851,1.640625 0,0.546875 0.341796,0.888672 0.358887,0.341797 1.042481,0.563965 0.563965,0.187988 1.298828,0.290527 0.751953,0.102539 1.931152,0.222168 1.657715,0.187988 2.666016,0.358887 1.025391,0.153808 1.931152,0.478515 1.367188,0.495606 2.119141,1.435547 0.769043,0.939942 0.769043,2.478028 0,1.538086 -0.786133,2.700195 -0.769043,1.14502 -2.272949,1.777344 -1.486816,0.632324 -3.571777,0.632324 -1.845704,0 -3.247071,-0.512695 -1.401367,-0.512696 -2.443847,-1.555176 v 0.957031 q 0,0.598145 -0.290528,0.854492 -0.290527,0.256348 -0.991211,0.256348 -0.700683,0 -0.991211,-0.256348 -0.290527,-0.256347 -0.290527,-0.854492 v -4.101562 q 0,-0.598145 0.290527,-0.854493 0.290528,-0.256347 0.991211,-0.256347 0.358887,0 0.563965,0.170898 0.205078,0.153809 0.358887,0.529785 0.615234,1.640625 2.050781,2.392578 1.435547,0.751954 3.828125,0.751954 1.982422,0 3.041992,-0.717774 1.059571,-0.717773 1.059571,-1.914062 0,-0.581055 -0.375977,-0.957032 -0.375976,-0.375976 -1.07666,-0.615234 -0.598145,-0.187988 -1.384277,-0.307617 -0.769043,-0.136719 -1.965332,-0.256348 -1.606446,-0.170898 -2.683106,-0.358887 -1.07666,-0.187988 -1.982422,-0.546875 -1.247558,-0.495605 -1.948242,-1.367187 -0.683594,-0.888672 -0.683594,-2.307129 0,-1.486816 0.769043,-2.546387 0.786133,-1.07666 2.153321,-1.623535 1.384277,-0.546875 3.127441,-0.546875 1.657715,0 3.024902,0.495606 1.384278,0.495605 2.375489,1.384277 v -0.769043 q 0,-0.598144 0.290527,-0.854492 0.290527,-0.256348 0.991211,-0.256348 z m 28.94043,0.375977 q 0.581054,0 0.820312,0.273437 0.256348,0.256348 0.256348,0.888672 0,0.632324 -0.256348,0.905762 -0.239258,0.256348 -0.820312,0.256348 h -0.410157 l -3.366699,12.731933 q -0.170898,0.615234 -0.512695,0.854492 -0.324707,0.256348 -0.974121,0.256348 -0.734864,0 -1.16211,-0.273438 -0.410156,-0.256347 -0.615234,-0.837402 l -2.614746,-7.416992 -2.648926,7.416992 q -0.205078,0.581055 -0.649414,0.837402 -0.427246,0.273438 -1.162109,0.273438 -0.649414,0 -0.974121,-0.256348 -0.324708,-0.239258 -0.478516,-0.854492 l -3.29834,-12.731933 h -0.307617 q -0.581055,0 -0.837402,-0.256348 -0.239258,-0.273438 -0.239258,-0.905762 0,-0.632324 0.239258,-0.888672 0.256347,-0.273437 0.837402,-0.273437 h 5.024414 q 0.581055,0 0.820312,0.273437 0.256348,0.256348 0.256348,0.888672 0,0.632324 -0.256348,0.905762 -0.239257,0.256348 -0.820312,0.256348 h -2.102051 l 2.460938,9.946289 2.854004,-7.929688 q 0.119628,-0.358887 0.444335,-0.581055 0.324708,-0.222168 0.854493,-0.222168 1.07666,0 1.315918,0.683594 l 2.836914,8.049317 2.529297,-9.946289 h -1.726075 q -0.581054,0 -0.837402,-0.256348 -0.239258,-0.273438 -0.239258,-0.905762 0,-0.632324 0.239258,-0.888672 0.256348,-0.273437 0.837402,-0.273437 z m 15.302737,-0.375977 q 2.47802,0 4.22119,1.008301 1.76025,0.991211 2.70019,2.768555 0.93995,1.760254 1.07666,4.067382 0,0.581055 -0.25634,0.820313 -0.23926,0.239258 -0.82032,0.239258 H 94.838547 q 0.119629,2.546387 1.503906,3.862304 1.401367,1.298829 3.947757,1.298829 1.57226,0 3.11035,-0.393067 1.53808,-0.410156 2.70019,-1.07666 0.29053,-0.153809 0.52979,-0.153809 0.59814,0 0.97412,0.905762 0.15381,0.358887 0.15381,0.649414 0,0.683594 -0.75195,1.059571 -1.31592,0.666503 -3.11036,1.07666 -1.79443,0.410156 -3.60595,0.410156 -2.580569,0 -4.409183,-0.991211 -1.828613,-0.991211 -2.785644,-2.854004 -0.957032,-1.862793 -0.957032,-4.426269 0,-2.443848 1.042481,-4.323731 1.04248,-1.879883 2.888184,-2.905273 1.845703,-1.042481 4.221194,-1.042481 z m 0,2.478028 q -2.102054,0 -3.486331,1.07666 -1.367188,1.05957 -1.794434,2.956543 h 10.441895 q -0.35889,-1.965332 -1.65772,-2.990723 -1.28173,-1.04248 -3.50341,-1.04248 z m 24.73633,-2.478028 q 2.47802,0 4.22119,1.008301 1.76025,0.991211 2.70019,2.768555 0.93994,1.760254 1.07666,4.067382 0,0.581055 -0.25635,0.820313 -0.23925,0.239258 -0.82031,0.239258 h -12.37305 q 0.11963,2.546387 1.50391,3.862304 1.40137,1.298829 3.94776,1.298829 1.57226,0 3.11035,-0.393067 1.53808,-0.410156 2.70019,-1.07666 0.29053,-0.153809 0.52979,-0.153809 0.59814,0 0.97412,0.905762 0.15381,0.358887 0.15381,0.649414 0,0.683594 -0.75196,1.059571 -1.31591,0.666503 -3.11035,1.07666 -1.79443,0.410156 -3.60595,0.410156 -2.58057,0 -4.40918,-0.991211 -1.82862,-0.991211 -2.78565,-2.854004 -0.95703,-1.862793 -0.95703,-4.426269 0,-2.443848 1.04248,-4.323731 1.04248,-1.879883 2.88818,-2.905273 1.84571,-1.042481 4.2212,-1.042481 z m 0,2.478028 q -2.10206,0 -3.48633,1.07666 -1.36719,1.05957 -1.79444,2.956543 h 10.4419 q -0.35889,-1.965332 -1.65772,-2.990723 -1.28174,-1.04248 -3.50341,-1.04248 z M 150.549,27.066448 q 2.11914,0 3.79394,1.008301 1.67481,0.991211 2.63184,2.871094 0.95703,1.862793 0.95703,4.39209 0,2.529296 -0.95703,4.409179 -0.95703,1.862793 -2.63184,2.871094 -1.6748,0.991211 -3.79394,0.991211 -3.21289,0 -5.41748,-2.819824 v 6.750488 h 2.93945 q 0.58105,0 0.82031,0.256348 0.25635,0.273437 0.25635,0.905761 0,0.632325 -0.25635,0.888672 -0.23926,0.273438 -0.82031,0.273438 h -7.2461 q -0.58105,0 -0.8374,-0.273438 -0.23926,-0.256347 -0.23926,-0.888672 0,-0.632324 0.23926,-0.905761 0.25635,-0.256348 0.8374,-0.256348 h 1.74317 V 29.766644 h -1.40137 q -0.58105,0 -0.8374,-0.256348 -0.23926,-0.273438 -0.23926,-0.905762 0,-0.632324 0.23926,-0.888672 0.25635,-0.273437 0.8374,-0.273437 h 2.71729 q 0.58105,0 0.82031,0.273437 0.25635,0.256348 0.25635,0.888672 v 1.367188 q 1.07666,-1.401368 2.49511,-2.153321 1.41846,-0.751953 3.09327,-0.751953 z m -0.1709,2.529297 q -1.521,0 -2.71729,0.683594 -1.1792,0.683594 -1.86279,1.982422 -0.6665,1.298828 -0.6665,3.076172 0,1.777343 0.6665,3.076171 0.68359,1.298829 1.86279,1.982422 1.19629,0.683594 2.71729,0.683594 1.52099,0 2.61474,-0.717773 1.09375,-0.734864 1.65772,-2.033692 0.58105,-1.298828 0.58105,-2.990722 0,-1.691895 -0.58105,-2.990723 -0.56397,-1.298828 -1.65772,-2.016602 -1.09375,-0.734863 -2.61474,-0.734863 z m 23.02734,-2.529297 q 1.67481,0 3.09326,0.751953 1.41846,0.751953 2.49512,2.153321 v -1.367188 q 0,-0.632324 0.23926,-0.888672 0.25635,-0.273437 0.8374,-0.273437 h 2.71729 q 0.58105,0 0.82031,0.273437 0.25635,0.256348 0.25635,0.888672 0,0.632324 -0.25635,0.905762 -0.23926,0.256348 -0.82031,0.256348 h -1.40137 v 13.979492 q 0,2.033691 -0.87158,3.486328 -0.8545,1.469726 -2.49512,2.238769 -1.64063,0.769043 -3.94775,0.769043 -1.64063,0 -3.31543,-0.290527 -1.67481,-0.273438 -3.12745,-0.803223 -0.6665,-0.239257 -0.6665,-0.905761 0,-0.273438 0.13672,-0.683594 0.30762,-0.939942 0.97412,-0.939942 0.18799,0 0.37598,0.06836 1.333,0.478515 2.80273,0.751953 1.46973,0.273437 2.81983,0.273437 2.35839,0 3.55468,-1.127929 1.19629,-1.11084 1.19629,-3.059082 v -3.435059 q -2.11914,2.666016 -5.41748,2.666016 -2.11914,0 -3.79394,-0.939942 -1.67481,-0.957031 -2.63184,-2.734375 -0.95703,-1.777343 -0.95703,-4.169922 0,-2.392578 0.95703,-4.169921 0.95703,-1.777344 2.63184,-2.717286 1.6748,-0.957031 3.79394,-0.957031 z m 0.1709,2.529297 q -1.521,0 -2.61475,0.683594 -1.09375,0.666504 -1.6748,1.879883 -0.56397,1.196289 -0.56397,2.751464 0,1.555176 0.56397,2.768555 0.58105,1.196289 1.6748,1.879883 1.09375,0.666504 2.61475,0.666504 1.521,0 2.7002,-0.632324 1.19628,-0.632325 1.86279,-1.828614 0.68359,-1.213379 0.68359,-2.854004 0,-1.640625 -0.68359,-2.836914 -0.66651,-1.213378 -1.86279,-1.845703 -1.1792,-0.632324 -2.7002,-0.632324 z m 25.65918,-2.529297 q 2.47803,0 4.22119,1.008301 1.76025,0.991211 2.7002,2.768555 0.93994,1.760254 1.07666,4.067382 0,0.581055 -0.25635,0.820313 -0.23926,0.239258 -0.82031,0.239258 h -12.37305 q 0.11963,2.546387 1.50391,3.862304 1.40136,1.298829 3.94775,1.298829 1.57227,0 3.11035,-0.393067 1.53809,-0.410156 2.7002,-1.07666 0.29052,-0.153809 0.52978,-0.153809 0.59815,0 0.97412,0.905762 0.15381,0.358887 0.15381,0.649414 0,0.683594 -0.75195,1.059571 -1.31592,0.666503 -3.11035,1.07666 -1.79444,0.410156 -3.60596,0.410156 -2.58057,0 -4.40918,-0.991211 -1.82861,-0.991211 -2.78564,-2.854004 -0.95704,-1.862793 -0.95704,-4.426269 0,-2.443848 1.04248,-4.323731 1.04248,-1.879883 2.88819,-2.905273 1.8457,-1.042481 4.22119,-1.042481 z m 0,2.478028 q -2.10205,0 -3.48633,1.07666 -1.36719,1.05957 -1.79443,2.956543 h 10.44189 q -0.35888,-1.965332 -1.65771,-2.990723 -1.28174,-1.04248 -3.50342,-1.04248 z m 26.51367,-2.478028 q 1.55518,0 2.7002,0.683594 1.14502,0.666504 1.76025,1.931152 0.61523,1.264649 0.61523,2.956543 v 8.271485 h 1.40137 q 0.58106,0 0.82031,0.273437 0.25635,0.256348 0.25635,0.888672 0,0.632324 -0.25635,0.905762 -0.23925,0.256347 -0.82031,0.256347 h -5.53711 q -0.58105,0 -0.8374,-0.256347 -0.23926,-0.273438 -0.23926,-0.905762 0,-0.632324 0.23926,-0.888672 0.25635,-0.273437 0.8374,-0.273437 h 1.57227 v -8.015137 q 0,-1.520996 -0.70069,-2.409668 -0.70068,-0.888672 -2.06787,-0.888672 -1.45263,0 -2.71728,0.837402 -1.24756,0.837403 -1.99951,2.307129 -0.75196,1.469727 -0.75196,3.28125 v 4.887696 h 1.57227 q 0.58105,0 0.82031,0.273437 0.25635,0.256348 0.25635,0.888672 0,0.632324 -0.25635,0.905762 -0.23926,0.256347 -0.82031,0.256347 h -5.53711 q -0.58105,0 -0.8374,-0.256347 -0.23926,-0.273438 -0.23926,-0.905762 0,-0.632324 0.23926,-0.888672 0.25635,-0.273437 0.8374,-0.273437 h 1.40137 V 29.766644 h -1.74317 q -0.58105,0 -0.8374,-0.256348 -0.23926,-0.273438 -0.23926,-0.905762 0,-0.632324 0.23926,-0.888672 0.25635,-0.273437 0.8374,-0.273437 h 3.05909 q 0.58105,0 0.82031,0.273437 0.25635,0.256348 0.25635,0.888672 v 2.050781 q 1.12792,-1.743164 2.63183,-2.666015 1.521,-0.922852 3.26416,-0.922852 z"
     id="text1"
     aria-label="sweepgen" />
</svg>
